<svg width="55" height="55" viewBox="0 0 55 55" fill="none" xmlns="http://www.w3.org/2000/svg">
<path d="M8.27148 4.10791L5.82656 6.55283L7.05117 7.76025L9.47891 10.1923L10.6906 11.4126L13.1313 8.97197L11.9109 7.76025L9.47891 5.33252L8.27148 4.10791ZM46.7285 4.10791L45.5211 5.33252L41.8816 8.97197L44.3094 11.4126L45.5211 10.1923L49.1605 6.55283L46.7285 4.10791ZM27.5 6.8751C19.9289 6.8751 13.75 13.0497 13.75 20.6251C13.75 25.3774 15.8297 28.1188 17.5098 30.4563C19.2027 32.7767 20.625 34.7489 20.625 39.5313V42.9688C20.625 45.1989 22.0902 47.1024 24.0883 47.8028C24.0754 47.9103 24.0625 48.0177 24.0625 48.1251C24.0625 50.02 25.6051 51.5626 27.5 51.5626C29.3949 51.5626 30.9375 50.02 30.9375 48.1251C30.9375 48.0177 30.9375 47.9103 30.9246 47.8028C32.9227 47.0895 34.375 45.1989 34.375 42.9688V39.5313C34.375 34.7489 35.7973 32.7767 37.4902 30.4563C39.1703 28.1188 41.25 25.3774 41.25 20.6251C41.25 13.0497 35.0711 6.8751 27.5 6.8751ZM27.5 10.3126C33.2191 10.3126 37.8125 14.906 37.8125 20.6251C37.8125 24.4665 36.4547 26.022 34.6973 28.411C33.1805 30.5208 31.6766 33.4899 31.2598 37.8126H23.7402C23.3234 33.4899 21.8195 30.5208 20.3027 28.411C18.5453 26.022 17.1875 24.4665 17.1875 20.6251C17.1875 14.906 21.7809 10.3126 27.5 10.3126ZM3.4375 20.6251V24.0626H10.3125V20.6251H3.4375ZM44.6875 20.6251V24.0626H51.5625V20.6251H44.6875ZM10.6906 33.2751L9.47891 34.4954L7.05117 36.9274L5.82656 38.1349L8.27148 40.5669L11.9109 36.9274L13.1313 35.7157L10.6906 33.2751ZM44.3094 33.2751L41.8816 35.7157L46.7285 40.5669L49.1605 38.1349L45.5211 34.4954L44.3094 33.2751ZM24.0625 41.2501H30.9375V42.9688C30.9375 43.9356 30.1855 44.6876 29.2188 44.6876H25.7812C24.8145 44.6876 24.0625 43.9356 24.0625 42.9688V41.2501Z" fill="white"/>
</svg>
