<svg width="47" height="47" viewBox="0 0 47 47" fill="none" xmlns="http://www.w3.org/2000/svg">
<path d="M19.0938 2.9375C10.1895 2.9375 2.9375 10.1895 2.9375 19.0938C2.9375 25.1046 6.2532 30.3627 11.1405 33.1387C12.5872 35.5952 14.6067 37.578 16.9824 38.9549C19.8869 43.923 25.1413 47 30.8438 47C39.748 47 47 39.748 47 30.8438C47 25.1413 43.923 19.8869 38.9549 16.9824C37.578 14.6067 35.5952 12.5872 33.1387 11.1405C30.3627 6.2532 25.1046 2.9375 19.0938 2.9375ZM19.0938 5.875C23.8782 5.875 28.0311 8.45633 30.3517 12.2788L30.6602 12.8185C31.0861 13.608 31.4055 14.4121 31.6699 15.2273C31.7617 15.5027 31.8645 15.778 31.9343 16.0645C31.9894 16.3288 32.0371 16.6042 32.0812 16.8686C32.2097 17.603 32.3125 18.3373 32.3125 19.0938C32.3125 26.3787 26.3787 32.3125 19.0938 32.3125C18.3373 32.3125 17.603 32.2097 16.8686 32.0812C16.6042 32.0371 16.3288 31.9894 16.0645 31.9343C15.778 31.8645 15.5027 31.7617 15.2273 31.6699C14.4121 31.4055 13.608 31.0861 12.8185 30.6602L11.7059 30.0506C8.19195 27.6749 5.875 23.6505 5.875 19.0938C5.875 11.8088 11.8088 5.875 19.0938 5.875ZM17.625 8.8125V11.75H16.1562C13.7695 11.75 11.75 13.7695 11.75 16.1562C11.75 18.543 13.7695 20.5625 16.1562 20.5625H22.0312C22.7877 20.5625 23.5 21.2748 23.5 22.0312C23.5 22.7877 22.7877 23.5 22.0312 23.5H11.75V26.4375H17.625V29.375H20.5625V26.4375H22.0312C24.418 26.4375 26.4375 24.418 26.4375 22.0312C26.4375 19.6445 24.418 17.625 22.0312 17.625H16.1562C15.3998 17.625 14.6875 16.9127 14.6875 16.1562C14.6875 15.3998 15.3998 14.6875 16.1562 14.6875H23.5V11.75H20.5625V8.8125H17.625ZM35.0187 16.4537C35.4923 16.9934 35.8816 17.5809 36.2487 18.1758L36.5352 18.6935C36.9831 19.5197 37.3136 20.3679 37.589 21.2271C37.6808 21.5502 37.7873 21.8697 37.8534 22.2148C37.9121 22.4572 37.9562 22.7069 38.0039 22.9602C38.1067 23.6248 38.1875 24.2931 38.1875 24.9688C38.1875 32.2537 32.2537 38.1875 24.9688 38.1875C24.2931 38.1875 23.6248 38.1067 22.9602 38.0039C22.7069 37.9562 22.4572 37.9121 22.2148 37.8534C21.8697 37.7873 21.5502 37.6808 21.2271 37.589C20.3679 37.3136 19.5197 36.9831 18.6935 36.5352L18.1758 36.2487C17.5809 35.8816 16.9934 35.4923 16.4537 35.0187C16.5124 35.0334 16.5675 35.0334 16.6152 35.0334C17.4304 35.1582 18.2455 35.25 19.0938 35.25C20.2063 35.25 21.2969 35.1362 22.3544 34.9269C24.451 34.4936 26.4045 33.6417 28.1119 32.4851C32.4153 29.5806 35.25 24.6603 35.25 19.0938C35.25 18.2455 35.1582 17.4304 35.0334 16.6152C35.0334 16.5675 35.0334 16.5124 35.0187 16.4537ZM40.8937 22.3287C42.9132 24.6823 44.0625 27.6896 44.0625 30.8438C44.0625 38.1287 38.1287 44.0625 30.8438 44.0625C27.6896 44.0625 24.6823 42.9132 22.3287 40.8937C22.3874 40.9084 22.4572 40.9084 22.5123 40.9194C23.3164 41.0442 24.1316 41.125 24.9688 41.125C33.873 41.125 41.125 33.873 41.125 24.9688C41.125 24.1316 41.0442 23.3164 40.9194 22.5123C40.9084 22.4572 40.9084 22.3874 40.8937 22.3287Z" fill="#FF7C01"/>
</svg>
