<svg width="56" height="56" viewBox="0 0 56 56" fill="none" xmlns="http://www.w3.org/2000/svg">
<path d="M36.7499 3.5C30.1612 3.5 24.7887 8.76313 24.5393 15.2863C23.8699 15.1331 23.3931 14.9844 22.6668 14.8225C21.0962 14.4769 19.6874 14.1794 19.6874 14.1794L19.6349 14.1663H19.6043C16.2399 13.615 13.0024 15.1463 10.7318 17.4169L6.86432 21.3019C2.72119 25.4275 2.50244 32.06 6.17744 36.505L5.60432 37.0781C2.84369 39.8256 2.81744 44.3231 5.63494 46.9219C8.40869 49.6431 12.8931 49.6825 15.5049 46.865L17.0493 45.3075C18.2656 45.3906 19.5912 45.1325 20.7418 44.2837C22.6274 42.8619 25.5237 40.7269 28.1093 38.8019C29.3956 37.8438 30.5856 36.9294 31.5524 36.19C32.2262 35.6694 32.5937 35.3413 33.0049 35H33.1143L33.6174 34.4794C35.2449 32.865 35.3281 30.2575 33.9062 28.49L34.7243 27.7419C35.3806 27.8513 36.0543 28 36.7499 28C43.4918 28 48.9999 22.4919 48.9999 15.75C48.9999 13.8513 48.5362 12.0706 47.7837 10.5L46.7031 8.25563L38.5699 16.4063L36.0937 13.93L44.2399 5.79687L41.9999 4.72937C40.4293 3.96375 38.6487 3.5 36.7499 3.5ZM36.7499 7C37.1306 7 37.4456 7.20563 37.8306 7.245L31.1456 13.93L38.5699 21.3544L45.2418 14.6825C45.2943 15.0413 45.4999 15.365 45.4999 15.75C45.4999 20.6019 41.6018 24.5 36.7499 24.5C35.9843 24.5 35.2581 24.4037 34.5624 24.2288L33.6174 23.9794L31.5831 25.8825L26.7968 20.5625L28.5337 18.9481L28.2712 17.9375C28.0962 17.2419 27.9999 16.5025 27.9999 15.75C27.9999 10.8981 31.8806 7 36.7499 7ZM17.5524 17.6225C18.0599 17.5525 18.5674 17.5394 19.0312 17.6225H19.0443C19.1143 17.6356 20.3962 17.8981 21.9143 18.2394C22.6537 18.4013 23.0212 18.5106 23.7081 18.6769L23.1612 19.1975L21.8749 20.3962L23.0518 21.63L23.1612 21.7656L31.1018 30.5681L31.1324 30.5988C31.5393 31.01 31.5393 31.6094 31.1456 32.0075C31.0756 32.0731 30.3362 32.7031 29.4087 33.4119C28.4768 34.1381 27.2912 35.0394 26.0049 35.9975C23.4456 37.9137 20.5362 40.0444 18.6331 41.4663C18.1824 41.8075 17.6487 41.9038 17.0624 41.8206C16.4762 41.7419 15.8724 41.3963 15.6668 41.195L9.30994 34.8337C6.26057 31.7887 6.29119 26.81 9.32307 23.7606L13.2081 19.8931C14.4112 18.69 16.0212 17.8413 17.5524 17.6225ZM8.58369 39.0469L13.2081 43.68C13.2868 43.7631 13.4137 43.82 13.5056 43.8988L12.9631 44.4588L12.9324 44.4894C11.6768 45.8544 9.52869 45.8806 8.06744 44.4325L8.01057 44.38C6.64557 43.1331 6.61494 41.0156 8.06744 39.5675L8.58369 39.0469Z" fill="#FF7C01"/>
</svg>
